<svg version="1.1" id="Layer_1" xmlns="http://www.w3.org/2000/svg" xmlns:xlink="http://www.w3.org/1999/xlink" x="0px" y="0px"
	 width="100%" viewBox="0 0 7530 2950" enable-background="new 0 0 7530 2950" xml:space="preserve">
<path fill="transparent" opacity="1.000000" stroke="none" 
	d="
M4692.000000,2956.000000 
	C3128.000000,2956.000000 1566.000000,2956.000000 4.000000,2956.000000 
	C4.000000,1972.000000 4.000000,988.000000 4.000000,4.000001 
	C2514.666748,4.000000 5025.333496,4.000000 7536.000000,4.000000 
	C7536.000000,988.000000 7536.000000,1972.000000 7536.000000,2956.000000 
	C6588.666504,2956.000000 5641.333496,2956.000000 4692.000000,2956.000000 
M7043.780273,1537.453979 
	C7045.014160,1490.813110 7045.219238,1444.252930 7040.867676,1397.664551 
	C7034.711426,1331.756592 7022.075195,1267.211670 7002.375488,1204.122314 
	C6882.760254,821.054871 6529.144043,543.257812 6107.876953,537.885742 
	C6104.170410,537.838501 6100.446777,539.092407 6096.166992,539.837036 
	C6096.166992,545.497742 6096.165039,550.125793 6096.166504,554.753845 
	C6096.243164,827.308960 6096.320312,1099.864136 6096.420410,1372.419067 
	C6096.420410,1373.061523 6096.669434,1373.744141 6096.954590,1374.334229 
	C6097.216797,1374.876099 6097.685059,1375.318237 6099.061035,1377.089355 
	C6126.559570,1379.310425 6152.354492,1388.785767 6172.768066,1409.930786 
	C6193.130371,1431.022949 6203.651367,1456.296143 6203.725098,1485.607300 
	C6203.788086,1510.449707 6195.713867,1532.720093 6180.297852,1552.140015 
	C6159.246582,1578.657593 6130.882324,1591.330444 6098.757812,1593.371338 
	C6097.449219,1595.302490 6096.784668,1595.833130 6096.757324,1596.394897 
	C6096.499023,1601.710327 6096.188477,1607.031250 6096.190430,1612.350342 
	C6096.295898,1884.900757 6096.429688,2157.451172 6096.577637,2430.001709 
	C6096.577637,2430.654785 6096.699707,2431.372314 6096.992676,2431.942871 
	C6097.282227,2432.507324 6097.860352,2432.923828 6099.921875,2435.120117 
	C6229.807617,2434.244141 6355.936035,2408.818848 6476.226074,2355.831055 
	C6639.870117,2283.745850 6773.210938,2174.281982 6875.442871,2027.611206 
	C6977.280273,1881.505249 7032.458496,1718.926514 7043.780273,1537.453979 
M1902.000000,2435.916504 
	C1941.948486,2435.721191 1981.896851,2435.530518 2021.844849,2435.281250 
	C2022.382324,2435.278076 2022.914917,2434.535156 2023.454712,2434.139648 
	C2023.945923,2432.989746 2024.801147,2431.859375 2024.864624,2430.686035 
	C2025.115845,2426.035156 2025.204712,2421.371094 2025.202881,2416.711914 
	C2025.097534,2144.136230 2024.977783,1871.560425 2024.826538,1598.984741 
	C2024.826172,1598.369995 2024.395142,1597.726074 2024.070557,1597.149170 
	C2023.765137,1596.606689 2023.334351,1596.134766 2022.958862,1595.631836 
	C2022.359009,1595.341431 2021.777222,1594.850098 2021.156250,1594.794189 
	C2017.865479,1594.498047 2014.564697,1594.113892 2011.267578,1594.115234 
	C1919.295776,1594.153809 1827.323975,1594.233765 1735.352173,1594.334351 
	C1734.734497,1594.334961 1734.094971,1594.663940 1733.506226,1594.929688 
	C1732.901978,1595.202393 1732.347656,1595.585815 1730.763916,1596.506470 
	C1727.770752,1601.221802 1724.135010,1606.759155 1720.686279,1612.410645 
	C1667.270996,1699.941650 1613.902832,1787.501587 1560.413940,1874.987671 
	C1557.810303,1879.245972 1556.847534,1885.346436 1549.739624,1886.206299 
	C1538.029785,1867.024536 1526.243164,1847.718018 1514.457275,1828.411133 
	C1502.314819,1808.520386 1490.160889,1788.636597 1478.034302,1768.736084 
	C1466.253296,1749.402222 1454.511719,1730.044312 1442.733154,1710.708862 
	C1430.608521,1690.805054 1418.588135,1670.836182 1406.285889,1651.042847 
	C1394.402954,1631.923828 1383.459717,1612.178711 1371.089478,1594.610840 
	C1299.897095,1592.041504 1097.789185,1593.130493 1079.991333,1596.104980 
	C1076.646729,1615.952881 1075.120728,2233.821777 1078.011108,2421.275391 
	C1078.080933,2425.807861 1078.851318,2430.329346 1079.277832,2434.680664 
	C1102.208862,2436.828125 1336.432007,2436.305908 1351.416626,2434.162598 
	C1351.805664,2433.675537 1352.313843,2433.239502 1352.551025,2432.687012 
	C1352.806641,2432.091797 1352.822510,2431.389160 1352.917480,2430.729980 
	C1353.012329,2430.072266 1353.101440,2429.411621 1353.145630,2428.749268 
	C1353.189819,2428.084961 1353.177124,2427.416992 1353.186401,2426.750488 
	C1353.195557,2426.083984 1353.207275,2425.417725 1353.207275,2424.751221 
	C1353.211792,2294.788086 1353.215210,2164.824707 1353.219360,2034.861450 
	C1353.219482,2033.528442 1353.215454,2032.195312 1353.239258,2030.862671 
	C1353.251099,2030.197266 1353.247192,2029.516602 1353.387573,2028.872803 
	C1353.513062,2028.297974 1353.706421,2027.651367 1354.089844,2027.242554 
	C1354.527100,2026.776367 1355.207886,2026.538574 1356.734375,2025.644165 
	C1359.302124,2029.148193 1362.115845,2032.631714 1364.547241,2036.364136 
	C1379.087036,2058.684570 1393.556396,2081.050781 1408.016113,2103.423096 
	C1451.034424,2169.981445 1493.980103,2236.586914 1537.153320,2303.044434 
	C1540.611328,2308.367188 1542.438232,2315.542969 1550.636597,2317.739746 
	C1552.569458,2315.390381 1554.865845,2313.042969 1556.648193,2310.354736 
	C1563.638306,2299.811035 1570.483521,2289.171143 1577.351929,2278.547363 
	C1629.055908,2198.572754 1680.720459,2118.572510 1732.535034,2038.669556 
	C1735.479980,2034.128052 1737.541992,2028.378174 1744.962891,2024.699829 
	C1744.962891,2043.278198 1744.962891,2059.833252 1744.962891,2076.388184 
	C1744.962891,2093.716553 1744.962891,2111.045166 1744.962891,2128.373535 
	C1744.962891,2145.035400 1744.962891,2161.697510 1744.962891,2178.359375 
	C1744.962891,2195.687744 1744.962891,2213.016357 1744.962891,2230.344727 
	C1744.962891,2247.006592 1744.962891,2263.668701 1744.962891,2280.330566 
	C1744.962891,2297.658936 1744.962891,2314.987549 1744.962891,2332.315918 
	C1744.962891,2348.977783 1744.927979,2365.639893 1744.972290,2382.301758 
	C1745.018066,2399.484131 1745.141235,2416.666504 1745.241211,2435.914062 
	C1797.129639,2435.918701 1847.564819,2435.915527 1902.000000,2435.916504 
M1523.266602,961.999695 
	C1523.340454,1098.597412 1523.413818,1235.195068 1523.501343,1371.792847 
	C1523.501709,1372.431519 1523.556396,1373.151611 1523.851807,1373.686523 
	C1524.157715,1374.240479 1524.788208,1374.615356 1526.223267,1375.946411 
	C1527.741089,1376.076904 1530.284180,1376.485352 1532.827515,1376.486206 
	C1620.118530,1376.518921 1707.409546,1376.529785 1794.700439,1376.443237 
	C1797.757812,1376.440186 1800.814209,1375.413208 1804.336304,1374.779663 
	C1804.336304,1367.094971 1804.336304,1360.481445 1804.336304,1353.868042 
	C1804.336670,1286.567261 1804.290649,1219.266479 1804.431030,1151.966064 
	C1804.441528,1146.918335 1802.462646,1141.213989 1807.678223,1136.601562 
	C1825.887207,1136.601562 1844.462646,1136.601562 1864.475952,1136.601562 
	C1916.982300,1216.072876 1969.755249,1295.947754 2022.263550,1375.421875 
	C2025.171387,1375.884888 2027.120239,1376.465820 2029.069336,1376.466675 
	C2131.019775,1376.512939 2232.970459,1376.515625 2334.920898,1376.479492 
	C2337.398682,1376.478638 2340.370605,1376.935059 2341.100586,1373.339600 
	C2340.947998,1372.692749 2340.967285,1371.976318 2340.639893,1371.497070 
	C2278.259277,1280.239014 2215.853027,1188.998535 2153.464111,1097.746094 
	C2152.718994,1096.656250 2152.129395,1095.445923 2151.585205,1094.238647 
	C2151.325195,1093.661865 2151.299072,1092.963867 2151.244873,1092.314331 
	C2151.190430,1091.666138 2151.232910,1091.009888 2151.232910,1089.791870 
	C2156.825684,1086.695190 2162.867432,1083.859009 2168.368652,1080.208374 
	C2184.987305,1069.179932 2202.335449,1058.983398 2217.712646,1046.401245 
	C2266.394775,1006.568909 2296.812988,955.476562 2308.633789,893.461182 
	C2314.923340,860.464233 2315.545654,827.353149 2312.498535,793.980225 
	C2305.661133,719.091553 2273.356445,657.947144 2214.544189,610.987549 
	C2185.055908,587.442261 2151.678467,571.259155 2115.897949,559.785278 
	C2062.795410,542.756958 2008.145630,535.610596 1952.594238,535.496521 
	C1813.328979,535.210449 1674.062988,535.356812 1534.797241,535.427124 
	C1531.088013,535.429016 1527.379272,536.547424 1523.266479,537.210266 
	C1523.266479,678.192749 1523.266479,818.096191 1523.266602,961.999695 
M3356.178955,965.769226 
	C3356.764404,1000.555481 3361.191162,1034.859253 3370.390137,1068.402710 
	C3405.602295,1196.803711 3484.475342,1289.395996 3603.300049,1347.634033 
	C3682.129150,1386.269775 3766.118408,1399.997803 3853.691650,1393.208740 
	C3919.640625,1388.096069 3982.017090,1370.953735 4040.466797,1340.097778 
	C4218.843750,1245.931396 4311.018066,1051.112305 4262.739746,851.120605 
	C4230.807617,718.842896 4149.978027,623.317566 4027.948242,564.262939 
	C3918.718506,511.402649 3804.167480,503.257416 3687.240723,534.026062 
	C3597.994141,557.510864 3522.062256,603.970459 3461.531250,673.965820 
	C3390.184082,756.468994 3355.763184,852.909485 3356.178955,965.769226 
M2376.013672,942.405151 
	C2374.877930,979.863708 2377.706299,1016.991028 2386.360352,1053.499023 
	C2417.059326,1183.006958 2492.086182,1278.667236 2609.256836,1340.621948 
	C2703.576660,1390.494385 2804.357910,1404.451172 2909.604980,1389.028198 
	C2973.706787,1379.634766 3033.389893,1358.147705 3088.313721,1323.920776 
	C3243.090576,1227.468506 3322.211670,1052.915405 3286.510254,869.967468 
	C3261.504150,741.825745 3189.707520,645.069519 3077.005371,579.679871 
	C2989.746094,529.052185 2894.916748,510.692627 2794.569092,518.806824 
	C2732.086182,523.859192 2672.866211,540.112122 2616.935059,568.314026 
	C2473.698730,640.537170 2382.177490,781.325989 2376.013672,942.405151 
M2199.632568,2290.324463 
	C2235.183838,2333.603271 2277.770020,2368.495850 2326.773926,2395.362793 
	C2394.560059,2432.527344 2467.371094,2451.337158 2544.611328,2453.510010 
	C2632.333252,2455.978027 2715.421143,2438.203369 2792.549072,2395.857422 
	C2977.757568,2294.170654 3060.505127,2089.062500 3003.650635,1891.675659 
	C2967.257324,1765.326538 2885.851807,1675.552734 2767.305176,1620.123047 
	C2675.993896,1577.428101 2579.830078,1566.684082 2480.524658,1582.884888 
	C2392.944824,1597.173096 2314.479004,1632.004028 2248.772217,1691.741821 
	C2126.956543,1802.491211 2082.591797,1940.540771 2110.736572,2101.941162 
	C2122.875000,2171.550537 2153.438721,2233.256592 2199.632568,2290.324463 
M5964.010742,1250.000000 
	C5963.826172,1216.689453 5963.644531,1183.378784 5963.434570,1150.068481 
	C5963.430664,1149.427368 5963.246094,1148.680054 5962.877930,1148.178833 
	C5962.508789,1147.675415 5961.803711,1147.418701 5959.106934,1145.656250 
	C5940.026367,1145.656250 5918.782715,1145.656250 5897.539062,1145.656250 
	C5876.873535,1145.656250 5856.207520,1145.656250 5835.541992,1145.656250 
	C5814.209473,1145.656250 5792.877441,1145.656250 5771.544922,1145.656250 
	C5750.212402,1145.656250 5728.880371,1145.656250 5707.547852,1145.656250 
	C5686.215332,1145.656250 5664.883301,1145.656250 5643.550781,1145.656250 
	C5622.884766,1145.656250 5602.214844,1145.927246 5581.554688,1145.580933 
	C5560.447754,1145.227173 5539.246094,1147.169434 5518.408203,1144.426025 
	C5515.607422,1124.583862 5515.898438,1070.564453 5519.008301,1055.042236 
	C5541.239746,1054.691650 5563.800293,1054.924683 5586.353027,1054.883667 
	C5609.018555,1054.842529 5631.684570,1054.874756 5654.350098,1054.874756 
	C5677.015625,1054.874756 5699.681641,1054.874756 5722.347168,1054.874756 
	C5745.012695,1054.874756 5767.678223,1054.874756 5790.343750,1054.874756 
	C5813.009277,1054.874756 5835.675781,1054.944946 5858.340820,1054.854736 
	C5880.856445,1054.765015 5903.392578,1055.282471 5927.358887,1054.414795 
	C5928.598633,1036.678345 5927.855957,1020.173584 5927.982422,1003.715149 
	C5928.110352,987.050293 5928.010742,970.383545 5928.010742,953.717651 
	C5928.010742,936.385071 5928.234863,919.048828 5927.945801,901.721069 
	C5927.671387,885.303772 5929.237305,868.778503 5926.688965,851.334778 
	C5913.037109,851.334778 5900.455078,851.334778 5887.873047,851.334778 
	C5875.873535,851.334778 5863.874023,851.334778 5851.874512,851.334778 
	C5839.208496,851.334778 5826.542480,851.334778 5813.876465,851.334778 
	C5801.876953,851.334778 5789.877441,851.334778 5777.877930,851.334778 
	C5765.211914,851.334778 5752.545898,851.334778 5739.879883,851.334778 
	C5727.880371,851.334778 5715.880859,851.334778 5703.881348,851.334778 
	C5691.215332,851.334778 5678.548828,851.334778 5665.882812,851.334778 
	C5653.883301,851.334778 5641.884277,851.334778 5629.884766,851.334778 
	C5617.218750,851.334778 5604.552246,851.334778 5591.886230,851.334778 
	C5579.886719,851.334778 5567.885254,851.466614 5555.888184,851.298340 
	C5543.403809,851.123291 5530.846680,852.050903 5518.738281,850.740967 
	C5515.862305,833.024658 5515.791992,784.784912 5518.578125,767.073486 
	C5524.109375,766.780212 5529.937500,766.219360 5535.767090,766.203918 
	C5568.432129,766.117126 5601.097656,766.161926 5633.762695,766.161926 
	C5734.424805,766.161865 5835.087402,766.206970 5935.749512,766.065125 
	C5942.793457,766.055237 5950.285645,767.916077 5956.913086,763.893677 
	C5957.340332,761.364746 5957.948730,759.439880 5957.950195,757.514709 
	C5958.000488,686.184875 5958.013672,614.855103 5957.917969,543.525452 
	C5957.915039,541.097717 5956.751465,538.671631 5955.895508,535.334778 
	C5948.721680,535.334778 5942.104004,535.334717 5935.485840,535.334717 
	C5711.495605,535.334717 5487.505859,535.334778 5263.515625,535.335022 
	C5259.515625,535.335022 5255.496582,535.092102 5251.521973,535.411499 
	C5247.811523,535.709656 5244.149414,536.606567 5240.231445,537.280212 
	C5240.231445,816.411804 5240.230469,1094.350464 5240.265137,1372.289062 
	C5240.265137,1372.854492 5240.725586,1373.462280 5241.081543,1373.973511 
	C5241.458984,1374.515503 5241.967773,1374.966064 5243.416992,1376.539673 
	C5249.651855,1376.539673 5256.909180,1376.539673 5264.166016,1376.539673 
	C5450.157715,1376.539673 5636.149414,1376.539795 5822.141113,1376.539673 
	C5864.806152,1376.539673 5907.470703,1376.581543 5950.135742,1376.474243 
	C5954.522461,1376.463257 5958.907227,1375.557739 5964.010742,1374.987061 
	C5964.010742,1333.845337 5964.010742,1293.922607 5964.010742,1250.000000 
M5238.791992,2137.999268 
	C5238.791992,2230.664307 5238.761230,2323.329346 5238.858887,2415.994385 
	C5238.865723,2422.359619 5237.372070,2429.087891 5240.497559,2434.824951 
	C5272.608887,2437.142578 5945.525391,2436.402832 5961.640137,2433.985352 
	C5961.990723,2431.715088 5962.719238,2429.191650 5962.721191,2426.667725 
	C5962.772949,2355.335938 5962.771973,2284.004395 5962.656738,2212.672852 
	C5962.652832,2210.220215 5961.382324,2207.769775 5960.479004,2204.514160 
	C5930.684082,2204.514160 5901.403809,2204.514160 5872.124023,2204.514160 
	C5842.124512,2204.514160 5812.125000,2204.514160 5782.125488,2204.514160 
	C5752.792969,2204.514160 5723.459961,2204.514160 5694.127441,2204.514160 
	C5664.127930,2204.514160 5634.127930,2204.659180 5604.129883,2204.472656 
	C5575.022949,2204.291748 5545.881348,2205.305908 5516.972168,2203.785400 
	C5514.709961,2181.175049 5514.958496,2130.445068 5517.424805,2114.285645 
	C5522.371094,2113.973145 5527.549805,2113.377197 5532.730957,2113.363037 
	C5564.730469,2113.275146 5596.729492,2113.318604 5628.729004,2113.318604 
	C5721.393555,2113.318604 5814.058594,2113.356934 5906.723145,2113.234619 
	C5913.073730,2113.226074 5919.939453,2115.127197 5925.501465,2111.033447 
	C5927.668945,2086.515625 5927.255371,1928.130737 5924.970703,1912.272827 
	C5918.307129,1909.095947 5910.899902,1910.586304 5903.784668,1910.580078 
	C5781.787109,1910.473389 5659.790039,1910.552002 5537.792480,1910.378418 
	C5530.740723,1910.368408 5523.178223,1912.653320 5516.636719,1908.191895 
	C5514.537109,1885.345337 5515.005371,1841.148438 5517.667969,1825.420654 
	C5546.579102,1824.016235 5575.768066,1824.956177 5604.929199,1824.785889 
	C5634.260742,1824.614624 5663.594727,1824.748291 5692.927246,1824.748291 
	C5721.593262,1824.748291 5750.259766,1824.748291 5778.925781,1824.748291 
	C5808.258301,1824.748291 5837.591309,1824.768677 5866.923828,1824.742432 
	C5896.098145,1824.716309 5925.276855,1824.865479 5955.214844,1824.628662 
	C5955.694824,1820.799927 5956.279297,1818.305298 5956.280762,1815.810181 
	C5956.330078,1745.145020 5956.343750,1674.479858 5956.240723,1603.814819 
	C5956.235840,1600.760864 5955.064453,1597.708740 5954.324707,1594.113525 
	C5721.476562,1594.113525 5489.500488,1594.111206 5257.524414,1594.129883 
	C5252.865234,1594.130249 5248.205566,1594.362061 5243.547363,1594.521851 
	C5242.906738,1594.543823 5242.184082,1594.627441 5241.660645,1594.946777 
	C5241.121582,1595.276001 5240.780273,1595.928711 5240.352051,1596.439697 
	C5239.966797,1596.968750 5239.245117,1597.497559 5239.244629,1598.027100 
	C5239.061035,1776.684448 5238.927246,1955.341675 5238.791992,2137.999268 
M1016.723633,954.002991 
	C1016.725769,985.331360 1016.656128,1016.660034 1016.825684,1047.987549 
	C1016.845642,1051.679688 1018.178467,1055.364746 1019.004883,1059.573608 
	C1031.331421,1059.573608 1042.643555,1059.573608 1053.955811,1059.573608 
	C1065.954224,1059.573608 1077.952759,1059.573608 1089.951172,1059.573608 
	C1101.283081,1059.573608 1112.616089,1059.475830 1123.946655,1059.600464 
	C1135.765991,1059.730469 1147.640137,1059.004883 1160.823730,1060.275269 
	C1161.070435,1088.557861 1160.961914,1115.665161 1160.911499,1142.742920 
	C1150.595093,1149.641357 1139.960571,1153.474731 1128.947266,1155.948364 
	C1087.999878,1165.145508 1046.753906,1166.161621 1006.230225,1154.997559 
	C940.466187,1136.880249 895.732239,1095.425781 874.878357,1029.895996 
	C859.654480,982.057617 860.151428,933.820068 876.623901,886.516296 
	C896.964844,828.103577 936.748474,788.265930 996.112366,769.534424 
	C1031.165405,758.473877 1067.024902,759.008362 1102.891357,765.950745 
	C1147.577271,774.600281 1187.164429,794.275757 1223.208130,821.614441 
	C1228.382935,825.539429 1233.611328,829.393555 1238.286133,832.885498 
	C1240.682861,831.664062 1242.198242,831.359375 1242.965210,830.434326 
	C1293.577026,769.388123 1344.129272,708.292419 1394.667358,647.185303 
	C1395.056152,646.715210 1395.351562,646.036072 1395.382812,645.438354 
	C1395.416138,644.805847 1395.080933,644.153931 1394.563477,642.242493 
	C1357.900269,610.475403 1316.687622,583.957214 1271.471558,563.578552 
	C1213.794922,537.583862 1153.290161,523.606689 1090.283447,518.636963 
	C1016.864014,512.845886 945.247803,520.718750 875.631531,544.510559 
	C804.384216,568.859863 742.376160,608.086426 691.558594,663.948303 
	C628.552490,733.208679 593.008057,814.801331 583.142761,907.902405 
	C575.860718,976.625000 582.645142,1043.692871 606.305908,1108.597900 
	C643.349548,1210.214355 711.818176,1284.750732 806.425354,1335.653442 
	C881.864868,1376.243286 963.278381,1393.926636 1048.450562,1395.005737 
	C1096.559692,1395.615479 1144.236938,1390.539551 1191.249146,1380.027100 
	C1272.961914,1361.755371 1347.675537,1328.284546 1414.139771,1277.009644 
	C1417.745850,1274.227661 1421.096802,1271.114868 1424.256836,1268.420166 
	C1424.256836,1139.458618 1424.257812,1011.497925 1424.227905,883.537292 
	C1424.227783,882.950928 1423.868774,882.314148 1423.534668,881.792114 
	C1423.180786,881.238892 1422.656372,880.794739 1421.114624,879.109619 
	C1415.677612,879.109619 1409.110718,879.109558 1402.543823,879.109558 
	C1362.548950,879.109558 1322.553955,879.109497 1282.559082,879.109497 
	C1200.569580,879.109497 1118.579834,879.062988 1036.590576,879.200684 
	C1030.251831,879.211365 1023.356628,877.180298 1016.723633,882.306702 
	C1016.723633,904.833496 1016.723633,927.419678 1016.723633,954.002991 
M4528.289062,2333.575439 
	C4542.760742,2369.283936 4557.231934,2404.992432 4571.321777,2439.758301 
	C4574.070312,2440.660889 4575.327148,2441.433594 4576.584961,2441.435547 
	C4660.545898,2441.564697 4744.506836,2441.638916 4828.467773,2441.678223 
	C4831.780273,2441.679688 4835.095215,2441.327637 4838.403320,2441.070312 
	C4839.034180,2441.021729 4839.663086,2440.692627 4840.250488,2440.405029 
	C4840.845703,2440.113281 4841.387695,2439.713135 4842.525879,2439.003418 
	C4845.133789,2432.804199 4848.048340,2426.128662 4850.768066,2419.374268 
	C4922.072754,2242.252686 4993.343750,2065.117432 5064.649414,1887.996338 
	C5102.165527,1794.807739 5139.743164,1701.644043 5177.246582,1608.450317 
	C5178.883789,1604.381592 5182.434082,1600.495361 5179.404785,1595.631226 
	C5163.881836,1593.738159 4895.778809,1593.323730 4872.462402,1595.278198 
	C4845.167480,1672.321777 4818.609863,1750.320557 4791.646973,1828.176636 
	C4764.714355,1905.944336 4737.720703,1983.690674 4709.693359,2064.502686 
	C4705.895020,2054.929688 4702.979492,2048.337158 4700.629883,2041.548950 
	C4651.024414,1898.217651 4601.489746,1754.861816 4551.899902,1611.525146 
	C4549.982422,1605.982666 4547.649414,1600.583984 4545.107422,1594.088989 
	C4534.718262,1594.088989 4524.796875,1594.088989 4514.875488,1594.089111 
	C4425.581543,1594.090210 4336.287598,1594.051147 4246.993652,1594.201538 
	C4242.113281,1594.209717 4236.375488,1592.061401 4232.165039,1597.656738 
	C4234.317383,1603.119019 4236.470703,1608.686890 4238.699219,1614.224243 
	C4276.455078,1708.034668 4314.191406,1801.852783 4351.989258,1895.646118 
	C4410.426758,2040.656128 4468.906738,2185.648682 4528.289062,2333.575439 
M4809.685547,1383.145264 
	C4822.152832,1382.754028 4834.709473,1383.983276 4847.632812,1382.330078 
	C4960.314941,1102.469849 5072.648926,823.479431 5184.945801,544.474060 
	C5185.895996,542.113220 5186.343262,539.550049 5187.243652,536.292358 
	C5183.147949,535.924622 5179.933594,535.385254 5176.718750,535.383728 
	C5080.735840,535.337463 4984.752441,535.323975 4888.769531,535.418396 
	C4884.961914,535.422180 4881.155762,536.533203 4877.739258,537.067322 
	C4875.635254,543.005859 4873.826660,548.013977 4872.083984,553.045166 
	C4821.557129,698.917480 4771.047852,844.796143 4720.454590,990.645569 
	C4719.046387,994.705322 4716.748535,998.456360 4713.998047,1004.144958 
	C4659.458008,846.618469 4605.705078,691.365479 4552.136719,536.644470 
	C4528.547363,534.380859 4254.063477,534.923523 4239.650879,537.131287 
	C4239.471191,537.773071 4239.226074,538.405273 4239.129395,539.059387 
	C4239.037109,539.689514 4238.938477,540.392639 4239.120605,540.976562 
	C4239.912598,543.513306 4240.687988,546.066284 4241.681152,548.528137 
	C4353.438477,825.623230 4465.214844,1102.710815 4577.007812,1379.791626 
	C4577.250977,1380.394531 4577.663574,1380.998901 4578.157715,1381.410400 
	C4578.647949,1381.819214 4579.341309,1381.984985 4581.918457,1383.145264 
	C4655.221680,1383.145264 4730.501465,1383.145264 4809.685547,1383.145264 
M3730.000244,1594.077759 
	C3530.756836,1594.077759 3331.513428,1594.077637 3132.270020,1594.077881 
	C3106.281738,1594.077881 3080.293213,1594.022217 3054.305420,1594.145264 
	C3050.502686,1594.163330 3046.704102,1595.036743 3042.367432,1595.581665 
	C3042.036377,1599.787964 3041.562256,1603.012939 3041.560303,1606.238159 
	C3041.517578,1677.539307 3041.500488,1748.840454 3041.598877,1820.141479 
	C3041.604004,1823.897827 3042.672607,1827.652710 3043.179199,1830.969116 
	C3044.902100,1831.427002 3045.537109,1831.661865 3046.192139,1831.755493 
	C3047.501709,1831.943115 3048.822510,1832.177612 3050.138672,1832.178101 
	C3126.104248,1832.211060 3202.070068,1832.220581 3278.035645,1832.242798 
	C3280.032959,1832.243408 3282.032959,1832.319946 3284.026123,1832.448608 
	C3284.642090,1832.488281 3285.282227,1832.738403 3285.833252,1833.036499 
	C3286.411377,1833.349121 3286.895264,1833.835205 3288.484619,1835.077026 
	C3288.628906,1841.395508 3288.933838,1848.598389 3288.936279,1855.801147 
	C3288.968994,1945.094116 3288.957764,2034.387207 3288.957764,2123.680176 
	C3288.957764,2220.969482 3288.917725,2318.258789 3289.048828,2415.547852 
	C3289.057617,2421.972656 3287.104248,2428.831055 3291.566650,2435.193848 
	C3294.084473,2435.428955 3296.684082,2435.883057 3299.283691,2435.884277 
	C3386.577637,2435.919678 3473.871338,2435.927979 3561.165283,2435.843994 
	C3564.237061,2435.841064 3567.307861,2434.856689 3571.281738,2434.174805 
	C3571.281738,2404.537109 3571.281738,2375.967285 3571.281738,2347.397217 
	C3571.281738,2318.743408 3571.281738,2290.089844 3571.281738,2261.436035 
	C3571.281738,2232.782227 3571.281738,2204.128662 3571.281738,2175.474854 
	C3571.281738,2147.487549 3571.281738,2119.500244 3571.281738,2091.512939 
	C3571.281738,2062.859131 3571.281738,2034.205444 3571.281738,2005.551758 
	C3571.281738,1976.898071 3571.145996,1948.243408 3571.319824,1919.590820 
	C3571.492676,1891.104858 3570.520264,1862.591797 3572.017822,1832.964233 
	C3579.402832,1832.696533 3585.899170,1832.261230 3592.395996,1832.256592 
	C3661.697998,1832.207031 3731.000000,1832.250366 3800.302002,1832.180176 
	C3806.046143,1832.174438 3811.789795,1831.526855 3818.063477,1831.145142 
	C3818.063477,1751.966187 3818.063477,1674.249756 3818.063477,1596.958252 
	C3816.188232,1595.884277 3815.062500,1594.681641 3813.925049,1594.669922 
	C3787.283936,1594.394531 3760.641846,1594.248169 3730.000244,1594.077759 
M3966.000977,2435.928223 
	C4031.912109,2435.928223 4097.823242,2435.928223 4163.327637,2435.928223 
	C4167.811035,2428.126465 4165.963379,2420.628174 4165.966309,2413.476318 
	C4166.073730,2147.678711 4166.056641,1881.881226 4166.055664,1616.083618 
	C4166.055664,1612.752808 4166.291016,1609.399902 4165.986328,1606.096924 
	C4165.640137,1602.349731 4164.808594,1598.647339 4164.053223,1594.112183 
	C4073.152832,1594.112183 3983.285156,1594.100098 3893.417480,1594.172974 
	C3890.867920,1594.175049 3888.319092,1595.080444 3886.144531,1595.493408 
	C3885.413330,1597.357666 3884.537354,1598.548340 3884.537354,1599.738892 
	C3884.525391,1876.852905 3884.573730,2153.966797 3884.642090,2431.080811 
	C3884.642090,2431.701904 3884.819580,2432.402832 3885.145020,2432.921631 
	C3885.485352,2433.464600 3886.104004,2433.833252 3886.883545,2434.531006 
	C3887.686279,2434.827881 3888.875488,2435.646484 3890.069824,2435.653809 
	C3914.047119,2435.801514 3938.024414,2435.855469 3966.000977,2435.928223 
z"/>
<path fill="#FFFFFF" opacity="1.000000" stroke="none" 
	d="
M7043.708008,1539.375610 
	C7032.458496,1718.926514 6977.280273,1881.505249 6875.442871,2027.611206 
	C6773.210938,2174.281982 6639.870117,2283.745850 6476.226074,2355.831055 
	C6355.936035,2408.818848 6229.807617,2434.244141 6099.921875,2435.120117 
	C6097.860352,2432.923828 6097.282227,2432.507324 6096.992676,2431.942871 
	C6096.699707,2431.372314 6096.577637,2430.654785 6096.577637,2430.001709 
	C6096.429688,2157.451172 6096.295898,1884.900757 6096.190430,1612.350342 
	C6096.188477,1607.031250 6096.499023,1601.710327 6096.757324,1596.394897 
	C6096.784668,1595.833130 6097.449219,1595.302490 6098.757812,1593.371338 
	C6130.882324,1591.330444 6159.246582,1578.657593 6180.297852,1552.140015 
	C6195.713867,1532.720093 6203.788086,1510.449707 6203.725098,1485.607300 
	C6203.651367,1456.296143 6193.130371,1431.022949 6172.768066,1409.930786 
	C6152.354492,1388.785767 6126.559570,1379.310425 6099.061035,1377.089355 
	C6097.685059,1375.318237 6097.216797,1374.876099 6096.954590,1374.334229 
	C6096.669434,1373.744141 6096.420410,1373.061523 6096.420410,1372.419067 
	C6096.320312,1099.864136 6096.243164,827.308960 6096.166504,554.753845 
	C6096.165039,550.125793 6096.166992,545.497742 6096.166992,539.837036 
	C6100.446777,539.092407 6104.170410,537.838501 6107.876953,537.885742 
	C6529.144043,543.257812 6882.760254,821.054871 7002.375488,1204.122314 
	C7022.075195,1267.211670 7034.711426,1331.756592 7040.867676,1397.664551 
	C7045.219238,1444.252930 7045.014160,1490.813110 7043.708008,1539.375610 
z"/>
<path fill="#FFFFFF" opacity="1.000000" stroke="none" 
	d="
M1900.000000,2435.916504 
	C1847.564819,2435.915527 1797.129639,2435.918701 1745.241211,2435.914062 
	C1745.141235,2416.666504 1745.018066,2399.484131 1744.972290,2382.301758 
	C1744.927979,2365.639893 1744.962891,2348.977783 1744.962891,2332.315918 
	C1744.962891,2314.987549 1744.962891,2297.658936 1744.962891,2280.330566 
	C1744.962891,2263.668701 1744.962891,2247.006592 1744.962891,2230.344727 
	C1744.962891,2213.016357 1744.962891,2195.687744 1744.962891,2178.359375 
	C1744.962891,2161.697510 1744.962891,2145.035400 1744.962891,2128.373535 
	C1744.962891,2111.045166 1744.962891,2093.716553 1744.962891,2076.388184 
	C1744.962891,2059.833252 1744.962891,2043.278198 1744.962891,2024.699829 
	C1737.541992,2028.378174 1735.479980,2034.128052 1732.535034,2038.669556 
	C1680.720459,2118.572510 1629.055908,2198.572754 1577.351929,2278.547363 
	C1570.483521,2289.171143 1563.638306,2299.811035 1556.648193,2310.354736 
	C1554.865845,2313.042969 1552.569458,2315.390381 1550.636597,2317.739746 
	C1542.438232,2315.542969 1540.611328,2308.367188 1537.153320,2303.044434 
	C1493.980103,2236.586914 1451.034424,2169.981445 1408.016113,2103.423096 
	C1393.556396,2081.050781 1379.087036,2058.684570 1364.547241,2036.364136 
	C1362.115845,2032.631714 1359.302124,2029.148193 1356.734375,2025.644165 
	C1355.207886,2026.538574 1354.527100,2026.776367 1354.089844,2027.242554 
	C1353.706421,2027.651367 1353.513062,2028.297974 1353.387573,2028.872803 
	C1353.247192,2029.516602 1353.251099,2030.197266 1353.239258,2030.862671 
	C1353.215454,2032.195312 1353.219482,2033.528442 1353.219360,2034.861450 
	C1353.215210,2164.824707 1353.211792,2294.788086 1353.207275,2424.751221 
	C1353.207275,2425.417725 1353.195557,2426.083984 1353.186401,2426.750488 
	C1353.177124,2427.416992 1353.189819,2428.084961 1353.145630,2428.749268 
	C1353.101440,2429.411621 1353.012329,2430.072266 1352.917480,2430.729980 
	C1352.822510,2431.389160 1352.806641,2432.091797 1352.551025,2432.687012 
	C1352.313843,2433.239502 1351.805664,2433.675537 1351.416504,2434.162598 
	C1336.432007,2436.305908 1102.208862,2436.828125 1079.277832,2434.680664 
	C1078.851318,2430.329346 1078.080933,2425.807861 1078.011108,2421.275391 
	C1075.120728,2233.821777 1076.646729,1615.952881 1079.991333,1596.104980 
	C1097.789185,1593.130493 1299.897095,1592.041504 1371.089478,1594.610840 
	C1383.459717,1612.178711 1394.402954,1631.923828 1406.285889,1651.042847 
	C1418.588135,1670.836182 1430.608521,1690.805054 1442.733154,1710.708862 
	C1454.511719,1730.044312 1466.253296,1749.402222 1478.034302,1768.736084 
	C1490.160889,1788.636597 1502.314819,1808.520386 1514.457275,1828.411133 
	C1526.243164,1847.718018 1538.029785,1867.024536 1549.739624,1886.206299 
	C1556.847534,1885.346436 1557.810303,1879.245972 1560.413940,1874.987671 
	C1613.902832,1787.501587 1667.270996,1699.941650 1720.686279,1612.410645 
	C1724.135010,1606.759155 1727.770752,1601.221802 1730.763916,1596.506470 
	C1732.347656,1595.585815 1732.901978,1595.202393 1733.506226,1594.929688 
	C1734.094971,1594.663940 1734.734497,1594.334961 1735.352173,1594.334351 
	C1827.323975,1594.233765 1919.295776,1594.153809 2011.267578,1594.115234 
	C2014.564697,1594.113892 2017.865479,1594.498047 2021.156250,1594.794189 
	C2021.777222,1594.850098 2022.359009,1595.341431 2022.958862,1595.631836 
	C2023.334351,1596.134766 2023.765137,1596.606689 2024.070557,1597.149170 
	C2024.395142,1597.726074 2024.826172,1598.369995 2024.826538,1598.984741 
	C2024.977783,1871.560425 2025.097534,2144.136230 2025.202881,2416.711914 
	C2025.204712,2421.371094 2025.115845,2426.035156 2024.864624,2430.686035 
	C2024.801147,2431.859375 2023.945923,2432.989746 2023.452271,2434.138672 
	C2022.914917,2434.535156 2022.382324,2435.278076 2021.844849,2435.281250 
	C1981.896851,2435.530518 1941.948486,2435.721191 1900.000000,2435.916504 
z"/>
<path fill="#FFFFFF" opacity="1.000000" stroke="none" 
	d="
M1523.266602,959.999634 
	C1523.266479,818.096191 1523.266479,678.192749 1523.266479,537.210266 
	C1527.379272,536.547424 1531.088013,535.429016 1534.797241,535.427124 
	C1674.062988,535.356812 1813.328979,535.210449 1952.594238,535.496521 
	C2008.145630,535.610596 2062.795410,542.756958 2115.897949,559.785278 
	C2151.678467,571.259155 2185.055908,587.442261 2214.544189,610.987549 
	C2273.356445,657.947144 2305.661133,719.091553 2312.498535,793.980225 
	C2315.545654,827.353149 2314.923340,860.464233 2308.633789,893.461182 
	C2296.812988,955.476562 2266.394775,1006.568909 2217.712646,1046.401245 
	C2202.335449,1058.983398 2184.987305,1069.179932 2168.368652,1080.208374 
	C2162.867432,1083.859009 2156.825684,1086.695190 2151.232910,1089.791870 
	C2151.232910,1091.009888 2151.190430,1091.666138 2151.244873,1092.314331 
	C2151.299072,1092.963867 2151.325195,1093.661865 2151.585205,1094.238647 
	C2152.129395,1095.445923 2152.718994,1096.656250 2153.464111,1097.746094 
	C2215.853027,1188.998535 2278.259277,1280.239014 2340.639893,1371.497070 
	C2340.967285,1371.976318 2340.947998,1372.692749 2341.100586,1373.339600 
	C2340.370605,1376.935059 2337.398682,1376.478638 2334.920898,1376.479492 
	C2232.970459,1376.515625 2131.019775,1376.512939 2029.069336,1376.466675 
	C2027.120239,1376.465820 2025.171387,1375.884888 2022.263550,1375.421875 
	C1969.755249,1295.947754 1916.982300,1216.072876 1864.475952,1136.601562 
	C1844.462646,1136.601562 1825.887207,1136.601562 1807.678223,1136.601562 
	C1802.462646,1141.213989 1804.441528,1146.918335 1804.431030,1151.966064 
	C1804.290649,1219.266479 1804.336670,1286.567261 1804.336304,1353.868042 
	C1804.336304,1360.481445 1804.336304,1367.094971 1804.336304,1374.779663 
	C1800.814209,1375.413208 1797.757812,1376.440186 1794.700439,1376.443237 
	C1707.409546,1376.529785 1620.118530,1376.518921 1532.827515,1376.486206 
	C1530.284180,1376.485352 1527.741089,1376.076904 1526.223267,1375.946411 
	C1524.788208,1374.615356 1524.157715,1374.240479 1523.851807,1373.686523 
	C1523.556396,1373.151611 1523.501709,1372.431519 1523.501343,1371.792847 
	C1523.413818,1235.195068 1523.340454,1098.597412 1523.266602,959.999634 
M1804.312744,786.625610 
	C1804.530273,835.158569 1804.743896,883.691589 1805.020874,932.224304 
	C1805.023682,932.705017 1805.864868,933.180969 1806.902710,934.284241 
	C1808.045776,934.577393 1809.888672,935.460205 1811.732910,935.462830 
	C1852.300659,935.520752 1892.872681,935.809753 1933.434570,935.305725 
	C1950.745361,935.090637 1967.724854,931.824768 1984.020142,925.413879 
	C2031.529053,906.722778 2041.305298,863.136658 2029.397705,823.984924 
	C2022.725952,802.048401 2006.263184,788.855957 1985.668335,780.548950 
	C1967.526123,773.231262 1948.419800,771.105103 1928.995605,771.118408 
	C1891.087402,771.144348 1853.179199,771.099670 1815.271118,771.159973 
	C1812.135742,771.164917 1809.001221,771.745483 1804.905273,772.154602 
	C1804.670288,776.372559 1804.492798,779.558411 1804.312744,786.625610 
z"/>
<path fill="#FFFFFF" opacity="1.000000" stroke="none" 
	d="
M3356.172852,963.826050 
	C3355.763184,852.909485 3390.184082,756.468994 3461.531250,673.965820 
	C3522.062256,603.970459 3597.994141,557.510864 3687.240723,534.026062 
	C3804.167480,503.257416 3918.718506,511.402649 4027.948242,564.262939 
	C4149.978027,623.317566 4230.807617,718.842896 4262.739746,851.120605 
	C4311.018066,1051.112305 4218.843750,1245.931396 4040.466797,1340.097778 
	C3982.017090,1370.953735 3919.640625,1388.096069 3853.691650,1393.208740 
	C3766.118408,1399.997803 3682.129150,1386.269775 3603.300049,1347.634033 
	C3484.475342,1289.395996 3405.602295,1196.803711 3370.390137,1068.402710 
	C3361.191162,1034.859253 3356.764404,1000.555481 3356.172852,963.826050 
M3980.959717,1022.387756 
	C3983.975586,1008.106506 3988.254883,993.958801 3989.781006,979.520142 
	C3995.301025,927.286743 3984.482422,878.524780 3952.916748,836.098022 
	C3909.185791,777.319885 3849.259277,756.949158 3778.523193,769.916321 
	C3726.993164,779.362732 3688.683838,809.756165 3664.733154,855.951111 
	C3630.512451,921.954651 3630.484375,989.493469 3665.419434,1054.976196 
	C3695.919434,1112.145752 3745.155273,1143.100464 3810.604004,1145.208740 
	C3875.886963,1147.311768 3926.499268,1120.215454 3961.316650,1064.959961 
	C3969.035400,1052.710327 3973.919189,1038.674316 3980.959717,1022.387756 
z"/>
<path fill="#FFFFFF" opacity="1.000000" stroke="none" 
	d="
M2376.078857,940.477600 
	C2382.177490,781.325989 2473.698730,640.537170 2616.935059,568.314026 
	C2672.866211,540.112122 2732.086182,523.859192 2794.569092,518.806824 
	C2894.916748,510.692627 2989.746094,529.052185 3077.005371,579.679871 
	C3189.707520,645.069519 3261.504150,741.825745 3286.510254,869.967468 
	C3322.211670,1052.915405 3243.090576,1227.468506 3088.313721,1323.920776 
	C3033.389893,1358.147705 2973.706787,1379.634766 2909.604980,1389.028198 
	C2804.357910,1404.451172 2703.576660,1390.494385 2609.256836,1340.621948 
	C2492.086182,1278.667236 2417.059326,1183.006958 2386.360352,1053.499023 
	C2377.706299,1016.991028 2374.877930,979.863708 2376.078857,940.477600 
M2834.101807,1145.585449 
	C2846.696045,1144.504761 2859.548584,1144.671509 2871.839600,1142.126465 
	C2924.020508,1131.321289 2961.936035,1101.084961 2987.187744,1054.611572 
	C3001.408936,1028.438354 3008.742188,1000.109314 3010.361328,970.548645 
	C3013.110840,920.356750 3001.832031,873.539551 2970.624756,833.483948 
	C2925.608643,775.703064 2865.519287,756.360474 2794.775879,770.770264 
	C2744.743408,780.961365 2708.691650,811.310608 2684.332275,855.550049 
	C2662.741699,894.760864 2656.067627,937.181213 2661.461182,981.227966 
	C2663.466797,997.604431 2667.150146,1014.290649 2673.254883,1029.561768 
	C2701.535889,1100.307495 2752.459473,1141.324585 2834.101807,1145.585449 
z"/>
<path fill="#FFFFFF" opacity="1.000000" stroke="none" 
	d="
M2198.711426,2289.244873 
	C2153.438721,2233.256592 2122.875000,2171.550537 2110.736572,2101.941162 
	C2082.591797,1940.540771 2126.956543,1802.491211 2248.772217,1691.741821 
	C2314.479004,1632.004028 2392.944824,1597.173096 2480.524658,1582.884888 
	C2579.830078,1566.684082 2675.993896,1577.428101 2767.305176,1620.123047 
	C2885.851807,1675.552734 2967.257324,1765.326538 3003.650635,1891.675659 
	C3060.505127,2089.062500 2977.757568,2294.170654 2792.549072,2395.857422 
	C2715.421143,2438.203369 2632.333252,2455.978027 2544.611328,2453.510010 
	C2467.371094,2451.337158 2394.560059,2432.527344 2326.773926,2395.362793 
	C2277.770020,2368.495850 2235.183838,2333.603271 2198.711426,2289.244873 
M2695.719727,1890.472412 
	C2694.024658,1888.418213 2692.397949,1886.303101 2690.624512,1884.318970 
	C2645.331543,1833.645874 2588.543945,1815.915649 2522.882080,1829.164429 
	C2470.818115,1839.669678 2433.316406,1871.269409 2408.764404,1918.075195 
	C2389.317383,1955.149170 2383.717285,1994.897705 2387.506592,2036.225220 
	C2391.191650,2076.413574 2404.998535,2112.758057 2431.140869,2143.594727 
	C2474.053223,2194.213135 2529.574463,2212.599121 2594.049805,2201.738770 
	C2654.634033,2191.533691 2696.939941,2155.478760 2719.855713,2099.379639 
	C2749.338135,2027.204346 2742.630127,1957.553589 2695.719727,1890.472412 
z"/>
<path fill="#FFFFFF" opacity="1.000000" stroke="none" 
	d="
M5964.010742,1252.000000 
	C5964.010742,1293.922607 5964.010742,1333.845337 5964.010742,1374.987061 
	C5958.907227,1375.557739 5954.522461,1376.463257 5950.135742,1376.474243 
	C5907.470703,1376.581543 5864.806152,1376.539673 5822.141113,1376.539673 
	C5636.149414,1376.539795 5450.157715,1376.539673 5264.166016,1376.539673 
	C5256.909180,1376.539673 5249.651855,1376.539673 5243.416992,1376.539673 
	C5241.967773,1374.966064 5241.458984,1374.515503 5241.081543,1373.973511 
	C5240.725586,1373.462280 5240.265137,1372.854492 5240.265137,1372.289062 
	C5240.230469,1094.350464 5240.231445,816.411804 5240.231445,537.280212 
	C5244.149414,536.606567 5247.811523,535.709656 5251.521973,535.411499 
	C5255.496582,535.092102 5259.515625,535.335022 5263.515625,535.335022 
	C5487.505859,535.334778 5711.495605,535.334717 5935.485840,535.334717 
	C5942.104004,535.334717 5948.721680,535.334778 5955.895508,535.334778 
	C5956.751465,538.671631 5957.915039,541.097717 5957.917969,543.525452 
	C5958.013672,614.855103 5958.000488,686.184875 5957.950195,757.514709 
	C5957.948730,759.439880 5957.340332,761.364746 5956.913086,763.893677 
	C5950.285645,767.916077 5942.793457,766.055237 5935.749512,766.065125 
	C5835.087402,766.206970 5734.424805,766.161865 5633.762695,766.161926 
	C5601.097656,766.161926 5568.432129,766.117126 5535.767090,766.203918 
	C5529.937500,766.219360 5524.109375,766.780212 5518.578125,767.073486 
	C5515.791992,784.784912 5515.862305,833.024658 5518.738281,850.740967 
	C5530.846680,852.050903 5543.403809,851.123291 5555.888184,851.298340 
	C5567.885254,851.466614 5579.886719,851.334778 5591.886230,851.334778 
	C5604.552246,851.334778 5617.218750,851.334778 5629.884766,851.334778 
	C5641.884277,851.334778 5653.883301,851.334778 5665.882812,851.334778 
	C5678.548828,851.334778 5691.215332,851.334778 5703.881348,851.334778 
	C5715.880859,851.334778 5727.880371,851.334778 5739.879883,851.334778 
	C5752.545898,851.334778 5765.211914,851.334778 5777.877930,851.334778 
	C5789.877441,851.334778 5801.876953,851.334778 5813.876465,851.334778 
	C5826.542480,851.334778 5839.208496,851.334778 5851.874512,851.334778 
	C5863.874023,851.334778 5875.873535,851.334778 5887.873047,851.334778 
	C5900.455078,851.334778 5913.037109,851.334778 5926.688965,851.334778 
	C5929.237305,868.778503 5927.671387,885.303772 5927.945801,901.721069 
	C5928.234863,919.048828 5928.010742,936.385071 5928.010742,953.717651 
	C5928.010742,970.383545 5928.110352,987.050293 5927.982422,1003.715149 
	C5927.855957,1020.173584 5928.598633,1036.678345 5927.358887,1054.414795 
	C5903.392578,1055.282471 5880.856445,1054.765015 5858.340820,1054.854736 
	C5835.675781,1054.944946 5813.009277,1054.874756 5790.343750,1054.874756 
	C5767.678223,1054.874756 5745.012695,1054.874756 5722.347168,1054.874756 
	C5699.681641,1054.874756 5677.015625,1054.874756 5654.350098,1054.874756 
	C5631.684570,1054.874756 5609.018555,1054.842529 5586.353027,1054.883667 
	C5563.800293,1054.924683 5541.239746,1054.691650 5519.008301,1055.042236 
	C5515.898438,1070.564453 5515.607422,1124.583862 5518.408203,1144.426025 
	C5539.246094,1147.169434 5560.447754,1145.227173 5581.554688,1145.580933 
	C5602.214844,1145.927246 5622.884766,1145.656250 5643.550781,1145.656250 
	C5664.883301,1145.656250 5686.215332,1145.656250 5707.547852,1145.656250 
	C5728.880371,1145.656250 5750.212402,1145.656250 5771.544922,1145.656250 
	C5792.877441,1145.656250 5814.209473,1145.656250 5835.541992,1145.656250 
	C5856.207520,1145.656250 5876.873535,1145.656250 5897.539062,1145.656250 
	C5918.782715,1145.656250 5940.026367,1145.656250 5959.106934,1145.656250 
	C5961.803711,1147.418701 5962.508789,1147.675415 5962.877930,1148.178833 
	C5963.246094,1148.680054 5963.430664,1149.427368 5963.434570,1150.068481 
	C5963.644531,1183.378784 5963.826172,1216.689453 5964.010742,1252.000000 
z"/>
<path fill="#FFFFFF" opacity="1.000000" stroke="none" 
	d="
M5238.791992,2135.999023 
	C5238.927246,1955.341675 5239.061035,1776.684448 5239.244629,1598.027100 
	C5239.245117,1597.497559 5239.966797,1596.968750 5240.352051,1596.439697 
	C5240.780273,1595.928711 5241.121582,1595.276001 5241.660645,1594.946777 
	C5242.184082,1594.627441 5242.906738,1594.543823 5243.547363,1594.521851 
	C5248.205566,1594.362061 5252.865234,1594.130249 5257.524414,1594.129883 
	C5489.500488,1594.111206 5721.476562,1594.113525 5954.324707,1594.113525 
	C5955.064453,1597.708740 5956.235840,1600.760864 5956.240723,1603.814819 
	C5956.343750,1674.479858 5956.330078,1745.145020 5956.280762,1815.810181 
	C5956.279297,1818.305298 5955.694824,1820.799927 5955.214844,1824.628662 
	C5925.276855,1824.865479 5896.098145,1824.716309 5866.923828,1824.742432 
	C5837.591309,1824.768677 5808.258301,1824.748291 5778.925781,1824.748291 
	C5750.259766,1824.748291 5721.593262,1824.748291 5692.927246,1824.748291 
	C5663.594727,1824.748291 5634.260742,1824.614624 5604.929199,1824.785889 
	C5575.768066,1824.956177 5546.579102,1824.016235 5517.667969,1825.420654 
	C5515.005371,1841.148438 5514.537109,1885.345337 5516.636719,1908.191895 
	C5523.178223,1912.653320 5530.740723,1910.368408 5537.792480,1910.378418 
	C5659.790039,1910.552002 5781.787109,1910.473389 5903.784668,1910.580078 
	C5910.899902,1910.586304 5918.307129,1909.095947 5924.970703,1912.272827 
	C5927.255371,1928.130737 5927.668945,2086.515625 5925.501465,2111.033447 
	C5919.939453,2115.127197 5913.073730,2113.226074 5906.723145,2113.234619 
	C5814.058594,2113.356934 5721.393555,2113.318604 5628.729004,2113.318604 
	C5596.729492,2113.318604 5564.730469,2113.275146 5532.730957,2113.363037 
	C5527.549805,2113.377197 5522.371094,2113.973145 5517.424805,2114.285645 
	C5514.958496,2130.445068 5514.709961,2181.175049 5516.972168,2203.785400 
	C5545.881348,2205.305908 5575.022949,2204.291748 5604.129883,2204.472656 
	C5634.127930,2204.659180 5664.127930,2204.514160 5694.127441,2204.514160 
	C5723.459961,2204.514160 5752.792969,2204.514160 5782.125488,2204.514160 
	C5812.125000,2204.514160 5842.124512,2204.514160 5872.124023,2204.514160 
	C5901.403809,2204.514160 5930.684082,2204.514160 5960.479004,2204.514160 
	C5961.382324,2207.769775 5962.652832,2210.220215 5962.656738,2212.672852 
	C5962.771973,2284.004395 5962.772949,2355.335938 5962.721191,2426.667725 
	C5962.719238,2429.191650 5961.990723,2431.715088 5961.640137,2433.985352 
	C5945.525391,2436.402832 5272.608887,2437.142578 5240.497559,2434.824951 
	C5237.372070,2429.087891 5238.865723,2422.359619 5238.858887,2415.994385 
	C5238.761230,2323.329346 5238.791992,2230.664307 5238.791992,2135.999023 
z"/>
<path fill="#FFFFFF" opacity="1.000000" stroke="none" 
	d="
M1016.723633,952.004395 
	C1016.723633,927.419678 1016.723633,904.833496 1016.723633,882.306702 
	C1023.356628,877.180298 1030.251831,879.211365 1036.590576,879.200684 
	C1118.579834,879.062988 1200.569580,879.109497 1282.559082,879.109497 
	C1322.553955,879.109497 1362.548950,879.109558 1402.543823,879.109558 
	C1409.110718,879.109558 1415.677612,879.109619 1421.114624,879.109619 
	C1422.656372,880.794739 1423.180786,881.238892 1423.534668,881.792114 
	C1423.868774,882.314148 1424.227783,882.950928 1424.227905,883.537292 
	C1424.257812,1011.497925 1424.256836,1139.458618 1424.256836,1268.420166 
	C1421.096802,1271.114868 1417.745850,1274.227661 1414.139771,1277.009644 
	C1347.675537,1328.284546 1272.961914,1361.755371 1191.249146,1380.027100 
	C1144.236938,1390.539551 1096.559692,1395.615479 1048.450562,1395.005737 
	C963.278381,1393.926636 881.864868,1376.243286 806.425354,1335.653442 
	C711.818176,1284.750732 643.349548,1210.214355 606.305908,1108.597900 
	C582.645142,1043.692871 575.860718,976.625000 583.142761,907.902405 
	C593.008057,814.801331 628.552490,733.208679 691.558594,663.948303 
	C742.376160,608.086426 804.384216,568.859863 875.631531,544.510559 
	C945.247803,520.718750 1016.864014,512.845886 1090.283447,518.636963 
	C1153.290161,523.606689 1213.794922,537.583862 1271.471558,563.578552 
	C1316.687622,583.957214 1357.900269,610.475403 1394.563477,642.242493 
	C1395.080933,644.153931 1395.416138,644.805847 1395.382812,645.438354 
	C1395.351562,646.036072 1395.056152,646.715210 1394.667358,647.185303 
	C1344.129272,708.292419 1293.577026,769.388123 1242.965210,830.434326 
	C1242.198242,831.359375 1240.682861,831.664062 1238.286133,832.885498 
	C1233.611328,829.393555 1228.382935,825.539429 1223.208130,821.614441 
	C1187.164429,794.275757 1147.577271,774.600281 1102.891357,765.950745 
	C1067.024902,759.008362 1031.165405,758.473877 996.112366,769.534424 
	C936.748474,788.265930 896.964844,828.103577 876.623901,886.516296 
	C860.151428,933.820068 859.654480,982.057617 874.878357,1029.895996 
	C895.732239,1095.425781 940.466187,1136.880249 1006.230225,1154.997559 
	C1046.753906,1166.161621 1087.999878,1165.145508 1128.947266,1155.948364 
	C1139.960571,1153.474731 1150.595093,1149.641357 1160.911499,1142.742920 
	C1160.961914,1115.665161 1161.070435,1088.557861 1160.823730,1060.275269 
	C1147.640137,1059.004883 1135.765991,1059.730469 1123.946655,1059.600464 
	C1112.616089,1059.475830 1101.283081,1059.573608 1089.951172,1059.573608 
	C1077.952759,1059.573608 1065.954224,1059.573608 1053.955811,1059.573608 
	C1042.643555,1059.573608 1031.331421,1059.573608 1019.004883,1059.573608 
	C1018.178467,1055.364746 1016.845642,1051.679688 1016.825684,1047.987549 
	C1016.656128,1016.660034 1016.725769,985.331360 1016.723633,952.004395 
z"/>
<path fill="#FFFFFF" opacity="1.000000" stroke="none" 
	d="
M4527.829102,2332.112305 
	C4468.906738,2185.648682 4410.426758,2040.656128 4351.989258,1895.646118 
	C4314.191406,1801.852783 4276.455078,1708.034668 4238.699219,1614.224243 
	C4236.470703,1608.686890 4234.317383,1603.119019 4232.165039,1597.656738 
	C4236.375488,1592.061401 4242.113281,1594.209717 4246.993652,1594.201538 
	C4336.287598,1594.051147 4425.581543,1594.090210 4514.875488,1594.089111 
	C4524.796875,1594.088989 4534.718262,1594.088989 4545.107422,1594.088989 
	C4547.649414,1600.583984 4549.982422,1605.982666 4551.899902,1611.525146 
	C4601.489746,1754.861816 4651.024414,1898.217651 4700.629883,2041.548950 
	C4702.979492,2048.337158 4705.895020,2054.929688 4709.693359,2064.502686 
	C4737.720703,1983.690674 4764.714355,1905.944336 4791.646973,1828.176636 
	C4818.609863,1750.320557 4845.167480,1672.321777 4872.462402,1595.278198 
	C4895.778809,1593.323730 5163.881836,1593.738159 5179.404785,1595.631226 
	C5182.434082,1600.495361 5178.883789,1604.381592 5177.246582,1608.450317 
	C5139.743164,1701.644043 5102.165527,1794.807739 5064.649414,1887.996338 
	C4993.343750,2065.117432 4922.072754,2242.252686 4850.768066,2419.374268 
	C4848.048340,2426.128662 4845.133789,2432.804199 4842.525879,2439.003418 
	C4841.387695,2439.713135 4840.845703,2440.113281 4840.250488,2440.405029 
	C4839.663086,2440.692627 4839.034180,2441.021729 4838.403320,2441.070312 
	C4835.095215,2441.327637 4831.780273,2441.679688 4828.467773,2441.678223 
	C4744.506836,2441.638916 4660.545898,2441.564697 4576.584961,2441.435547 
	C4575.327148,2441.433594 4574.070312,2440.660889 4571.321777,2439.758301 
	C4557.231934,2404.992432 4542.760742,2369.283936 4527.829102,2332.112305 
z"/>
<path fill="#FFFFFF" opacity="1.000000" stroke="none" 
	d="
M4807.733398,1383.145264 
	C4730.501465,1383.145264 4655.221680,1383.145264 4581.918457,1383.145264 
	C4579.341309,1381.984985 4578.647949,1381.819214 4578.157715,1381.410400 
	C4577.663574,1380.998901 4577.250977,1380.394531 4577.007812,1379.791626 
	C4465.214844,1102.710815 4353.438477,825.623230 4241.681152,548.528137 
	C4240.687988,546.066284 4239.912598,543.513306 4239.120605,540.976562 
	C4238.938477,540.392639 4239.037109,539.689514 4239.129395,539.059387 
	C4239.226074,538.405273 4239.471191,537.773071 4239.650879,537.131226 
	C4254.063477,534.923523 4528.547363,534.380859 4552.136719,536.644470 
	C4605.705078,691.365479 4659.458008,846.618469 4713.998047,1004.144958 
	C4716.748535,998.456360 4719.046387,994.705322 4720.454590,990.645569 
	C4771.047852,844.796143 4821.557129,698.917480 4872.083984,553.045166 
	C4873.826660,548.013977 4875.635254,543.005859 4877.739258,537.067322 
	C4881.155762,536.533203 4884.961914,535.422180 4888.769531,535.418396 
	C4984.752441,535.323975 5080.735840,535.337463 5176.718750,535.383728 
	C5179.933594,535.385254 5183.147949,535.924622 5187.243652,536.292358 
	C5186.343262,539.550049 5185.895996,542.113220 5184.945801,544.474060 
	C5072.648926,823.479431 4960.314941,1102.469849 4847.632812,1382.330078 
	C4834.709473,1383.983276 4822.152832,1382.754028 4807.733398,1383.145264 
z"/>
<path fill="#FFFFFF" opacity="1.000000" stroke="none" 
	d="
M3732.000000,1594.077881 
	C3760.641846,1594.248169 3787.283936,1594.394531 3813.925049,1594.669922 
	C3815.062500,1594.681641 3816.188232,1595.884277 3818.063477,1596.958252 
	C3818.063477,1674.249756 3818.063477,1751.966187 3818.063477,1831.145142 
	C3811.789795,1831.526855 3806.046143,1832.174438 3800.302002,1832.180176 
	C3731.000000,1832.250366 3661.697998,1832.207031 3592.395996,1832.256592 
	C3585.899170,1832.261230 3579.402832,1832.696533 3572.017822,1832.964233 
	C3570.520264,1862.591797 3571.492676,1891.104858 3571.319824,1919.590820 
	C3571.145996,1948.243408 3571.281738,1976.898071 3571.281738,2005.551758 
	C3571.281738,2034.205444 3571.281738,2062.859131 3571.281738,2091.512939 
	C3571.281738,2119.500244 3571.281738,2147.487549 3571.281738,2175.474854 
	C3571.281738,2204.128662 3571.281738,2232.782227 3571.281738,2261.436035 
	C3571.281738,2290.089844 3571.281738,2318.743408 3571.281738,2347.397217 
	C3571.281738,2375.967285 3571.281738,2404.537109 3571.281738,2434.174805 
	C3567.307861,2434.856689 3564.237061,2435.841064 3561.165283,2435.843994 
	C3473.871338,2435.927979 3386.577637,2435.919678 3299.283691,2435.884277 
	C3296.684082,2435.883057 3294.084473,2435.428955 3291.566650,2435.193848 
	C3287.104248,2428.831055 3289.057617,2421.972656 3289.048828,2415.547852 
	C3288.917725,2318.258789 3288.957764,2220.969482 3288.957764,2123.680176 
	C3288.957764,2034.387207 3288.968994,1945.094116 3288.936279,1855.801147 
	C3288.933838,1848.598389 3288.628906,1841.395508 3288.484619,1835.077026 
	C3286.895264,1833.835205 3286.411377,1833.349121 3285.833252,1833.036499 
	C3285.282227,1832.738403 3284.642090,1832.488281 3284.026123,1832.448608 
	C3282.032959,1832.319946 3280.032959,1832.243408 3278.035645,1832.242798 
	C3202.070068,1832.220581 3126.104248,1832.211060 3050.138672,1832.178101 
	C3048.822510,1832.177612 3047.501709,1831.943115 3046.192139,1831.755493 
	C3045.537109,1831.661865 3044.902100,1831.427002 3043.179199,1830.969116 
	C3042.672607,1827.652710 3041.604004,1823.897827 3041.598877,1820.141479 
	C3041.500488,1748.840454 3041.517578,1677.539307 3041.560303,1606.238159 
	C3041.562256,1603.012939 3042.036377,1599.787964 3042.367432,1595.581665 
	C3046.704102,1595.036743 3050.502686,1594.163330 3054.305420,1594.145264 
	C3080.293213,1594.022217 3106.281738,1594.077881 3132.270020,1594.077881 
	C3331.513428,1594.077637 3530.756836,1594.077759 3732.000000,1594.077881 
z"/>
<path fill="#FFFFFF" opacity="1.000000" stroke="none" 
	d="
M3964.001465,2435.928223 
	C3938.024414,2435.855469 3914.047119,2435.801514 3890.069824,2435.653809 
	C3888.875488,2435.646484 3887.686279,2434.827881 3886.883545,2434.531006 
	C3886.104004,2433.833252 3885.485352,2433.464600 3885.145020,2432.921631 
	C3884.819580,2432.402832 3884.642090,2431.701904 3884.642090,2431.080811 
	C3884.573730,2153.966797 3884.525391,1876.852905 3884.537354,1599.738892 
	C3884.537354,1598.548340 3885.413330,1597.357666 3886.144531,1595.493408 
	C3888.319092,1595.080444 3890.867920,1594.175049 3893.417480,1594.172974 
	C3983.285156,1594.100098 4073.152832,1594.112183 4164.053223,1594.112183 
	C4164.808594,1598.647339 4165.640137,1602.349731 4165.986328,1606.096924 
	C4166.291016,1609.399902 4166.055664,1612.752808 4166.055664,1616.083618 
	C4166.056641,1881.881226 4166.073730,2147.678711 4165.966309,2413.476318 
	C4165.963379,2420.628174 4167.811035,2428.126465 4163.327637,2435.928223 
	C4097.823242,2435.928223 4031.912109,2435.928223 3964.001465,2435.928223 
z"/>
<path fill="transparent" opacity="1.000000" stroke="none" 
	d="
M1804.313965,784.684937 
	C1804.492798,779.558411 1804.670288,776.372559 1804.905273,772.154602 
	C1809.001221,771.745483 1812.135742,771.164917 1815.271118,771.159973 
	C1853.179199,771.099670 1891.087402,771.144348 1928.995605,771.118408 
	C1948.419800,771.105103 1967.526123,773.231262 1985.668335,780.548950 
	C2006.263184,788.855957 2022.725952,802.048401 2029.397705,823.984924 
	C2041.305298,863.136658 2031.529053,906.722778 1984.020142,925.413879 
	C1967.724854,931.824768 1950.745361,935.090637 1933.434570,935.305725 
	C1892.872681,935.809753 1852.300659,935.520752 1811.732910,935.462830 
	C1809.888672,935.460205 1808.045776,934.577393 1806.902710,934.284241 
	C1805.864868,933.180969 1805.023682,932.705017 1805.020874,932.224304 
	C1804.743896,883.691589 1804.530273,835.158569 1804.313965,784.684937 
z"/>
<path fill="transparent" opacity="1.000000" stroke="none" 
	d="
M3980.534180,1023.924194 
	C3973.919189,1038.674316 3969.035400,1052.710327 3961.316650,1064.959961 
	C3926.499268,1120.215454 3875.886963,1147.311768 3810.604004,1145.208740 
	C3745.155273,1143.100464 3695.919434,1112.145752 3665.419434,1054.976196 
	C3630.484375,989.493469 3630.512451,921.954651 3664.733154,855.951111 
	C3688.683838,809.756165 3726.993164,779.362732 3778.523193,769.916321 
	C3849.259277,756.949158 3909.185791,777.319885 3952.916748,836.098022 
	C3984.482422,878.524780 3995.301025,927.286743 3989.781006,979.520142 
	C3988.254883,993.958801 3983.975586,1008.106506 3980.534180,1023.924194 
z"/>
<path fill="transparent" opacity="1.000000" stroke="none" 
	d="
M2832.196289,1145.466797 
	C2752.459473,1141.324585 2701.535889,1100.307495 2673.254883,1029.561768 
	C2667.150146,1014.290649 2663.466797,997.604431 2661.461182,981.227966 
	C2656.067627,937.181213 2662.741699,894.760864 2684.332275,855.550049 
	C2708.691650,811.310608 2744.743408,780.961365 2794.775879,770.770264 
	C2865.519287,756.360474 2925.608643,775.703064 2970.624756,833.483948 
	C3001.832031,873.539551 3013.110840,920.356750 3010.361328,970.548645 
	C3008.742188,1000.109314 3001.408936,1028.438354 2987.187744,1054.611572 
	C2961.936035,1101.084961 2924.020508,1131.321289 2871.839600,1142.126465 
	C2859.548584,1144.671509 2846.696045,1144.504761 2832.196289,1145.466797 
z"/>
<path fill="transparent" opacity="1.000000" stroke="none" 
	d="
M2696.567383,1891.631104 
	C2742.630127,1957.553589 2749.338135,2027.204346 2719.855713,2099.379639 
	C2696.939941,2155.478760 2654.634033,2191.533691 2594.049805,2201.738770 
	C2529.574463,2212.599121 2474.053223,2194.213135 2431.140869,2143.594727 
	C2404.998535,2112.758057 2391.191650,2076.413574 2387.506592,2036.225220 
	C2383.717285,1994.897705 2389.317383,1955.149170 2408.764404,1918.075195 
	C2433.316406,1871.269409 2470.818115,1839.669678 2522.882080,1829.164429 
	C2588.543945,1815.915649 2645.331543,1833.645874 2690.624512,1884.318970 
	C2692.397949,1886.303101 2694.024658,1888.418213 2696.567383,1891.631104 
z"/>
</svg>